<svg width="107" height="51" viewBox="0 0 107 51" fill="none" xmlns="http://www.w3.org/2000/svg">
<g clip-path="url(#clip0_918_825)">
<path d="M40.8273 15.6045H36.6428C36.3601 15.6045 36.1309 15.8312 36.1309 16.1109V20.2501C36.1309 20.5298 36.3601 20.7565 36.6428 20.7565H40.8273C41.11 20.7565 41.3392 20.5298 41.3392 20.2501V16.1109C41.3392 15.8312 41.11 15.6045 40.8273 15.6045Z" fill="#0a165e"/>
<path d="M49.838 0.162109H28.6155C28.3327 0.162109 28.1035 0.388842 28.1035 0.668531V4.80768C28.1035 5.08737 28.3327 5.3141 28.6155 5.3141H49.838C50.1207 5.3141 50.35 5.08737 50.35 4.80768V0.668531C50.35 0.388842 50.1207 0.162109 49.838 0.162109Z" fill="#0a165e"/>
<path d="M33.3115 35.5913V2.37678C33.3115 2.09709 33.0823 1.87036 32.7996 1.87036L28.6151 1.87036C28.3324 1.87036 28.1032 2.09709 28.1032 2.37678V35.5913C28.1032 35.871 28.3324 36.0977 28.6151 36.0977H32.7996C33.0823 36.0977 33.3115 35.871 33.3115 35.5913Z" fill="#0a165e"/>
<path d="M21.5778 0.202515H8.24634C7.96359 0.202515 7.73438 0.429247 7.73438 0.708936V4.84809C7.73438 5.12777 7.96359 5.35451 8.24634 5.35451H21.5778C21.8606 5.35451 22.0898 5.12777 22.0898 4.84809V0.708936C22.0898 0.429247 21.8606 0.202515 21.5778 0.202515Z" fill="#0a165e"/>
<path d="M12.9424 35.598L12.9424 2.41731C12.9424 2.13762 12.7132 1.91089 12.4304 1.91089L8.24599 1.91089C7.96324 1.91089 7.73403 2.13762 7.73403 2.41731L7.73403 35.598C7.73403 35.8777 7.96324 36.1045 8.24599 36.1045H12.4304C12.7132 36.1045 12.9424 35.8777 12.9424 35.598Z" fill="#0a165e"/>
<path d="M4.6964 0.209351H0.511962C0.229213 0.209351 0 0.436083 0 0.715772V4.85492C0 5.13461 0.229213 5.36134 0.511962 5.36134H4.6964C4.97914 5.36134 5.20836 5.13461 5.20836 4.85492V0.715772C5.20836 0.436083 4.97914 0.209351 4.6964 0.209351Z" fill="#0a165e"/>
<path d="M97.6212 15.3412H93.4368C93.154 15.3412 92.9248 15.5679 92.9248 15.8476V19.9868C92.9248 20.2664 93.154 20.4932 93.4368 20.4932H97.6212C97.9039 20.4932 98.1332 20.2664 98.1332 19.9868V15.8476C98.1332 15.5679 97.9039 15.3412 97.6212 15.3412Z" fill="#0a165e"/>
<path d="M89.9346 35.3752V11.3911C89.9346 11.1114 89.7054 10.8846 89.4226 10.8846H85.2382C84.9554 10.8846 84.7262 11.1114 84.7262 11.3911V35.3752C84.7262 35.6549 84.9554 35.8816 85.2382 35.8816H89.4226C89.7054 35.8816 89.9346 35.6549 89.9346 35.3752Z" fill="#0a165e"/>
<path d="M106.945 35.5103V11.5262C106.945 11.2465 106.716 11.0198 106.433 11.0198H102.249C101.966 11.0198 101.737 11.2465 101.737 11.5262V35.5103C101.737 35.79 101.966 36.0167 102.249 36.0167H106.433C106.716 36.0167 106.945 35.79 106.945 35.5103Z" fill="#0a165e"/>
<path d="M84.7061 12.8834C84.7061 12.8834 83.2931 0.10808 96.3106 0.10808C96.3106 0.10808 106.98 -0.0202139 106.98 12.9847H101.669C101.669 12.9847 102.481 5.28033 95.9078 5.28033C89.3342 5.28033 89.9417 12.9847 89.9417 12.9847L84.6856 12.8834" fill="#0a165e"/>
<path d="M70.3029 0.060791H64.1184C63.8357 0.060791 63.6064 0.287524 63.6064 0.567212V4.70636C63.6064 4.98605 63.8357 5.21278 64.1184 5.21278H70.3029C70.5857 5.21278 70.8149 4.98605 70.8149 4.70636V0.567212C70.8149 0.287524 70.5857 0.060791 70.3029 0.060791Z" fill="#0a165e"/>
<path d="M61.6064 23.8423V9.89204C61.6064 9.61235 61.3772 9.38562 61.0945 9.38562H56.9101C56.6273 9.38562 56.3981 9.61235 56.3981 9.89204V23.8423C56.3981 24.122 56.6273 24.3487 56.9101 24.3487H61.0945C61.3772 24.3487 61.6064 24.122 61.6064 23.8423Z" fill="#0a165e"/>
<path d="M78.2412 31.0942H65.7698C65.487 31.0942 65.2578 31.321 65.2578 31.6007V35.6723C65.2578 35.952 65.487 36.1787 65.7698 36.1787H78.2412C78.5239 36.1787 78.7531 35.952 78.7531 35.6723V31.6007C78.7531 31.321 78.5239 31.0942 78.2412 31.0942Z" fill="#0a165e"/>
<path d="M78.835 35.625V21.1076C78.835 20.8279 78.6057 20.6012 78.323 20.6012H74.1386C73.8558 20.6012 73.6266 20.8279 73.6266 21.1076V35.625C73.6266 35.9047 73.8558 36.1314 74.1386 36.1314H78.323C78.6057 36.1314 78.835 35.9047 78.835 35.625Z" fill="#0a165e"/>
<path d="M75.0401 20.6147H68.7874C68.5046 20.6147 68.2754 20.8415 68.2754 21.1212V25.2603C68.2754 25.54 68.5046 25.7667 68.7874 25.7667H75.0401C75.3229 25.7667 75.5521 25.54 75.5521 25.2603V21.1212C75.5521 20.8415 75.3229 20.6147 75.0401 20.6147Z" fill="#0a165e"/>
<path d="M78.0978 0.0810547H73.9133C73.6306 0.0810547 73.4014 0.307787 73.4014 0.587476V4.72663C73.4014 5.00632 73.6306 5.23305 73.9133 5.23305H78.0978C78.3805 5.23305 78.6097 5.00632 78.6097 4.72663V0.587476C78.6097 0.307787 78.3805 0.0810547 78.0978 0.0810547Z" fill="#0a165e"/>
<path d="M70.4253 5.21277V0.060783H64.0087C64.0087 0.060783 56.418 -0.918299 56.418 4.88191V31.1821C56.418 31.1821 56.2132 36.1855 61.5718 36.1855H66.9303V31.0875H64.1998C64.1998 31.0875 61.6742 31.1348 61.6742 26.9821V8.23105C61.6742 8.23105 61.2714 5.21277 64.0292 5.21277H70.4253Z" fill="#0a165e"/>
<path d="M13.1748 43.5117V44.7001H11.2021V50.8447H9.71396V44.7001H7.74121V43.5117H13.1748Z" fill="#0a165e"/>
<path d="M19.6868 48.3531H15.3864C15.4 48.726 15.559 49.0793 15.8301 49.3389C16.0932 49.5794 16.4413 49.7079 16.7994 49.6968C17.0411 49.7145 17.2826 49.6595 17.4921 49.539C17.7017 49.4185 17.8695 49.2381 17.9735 49.0216H19.5571C19.3923 49.5755 19.0496 50.0614 18.581 50.4058C18.0666 50.7761 17.4421 50.9662 16.8062 50.946C16.2751 50.9521 15.7512 50.8243 15.284 50.5746C14.8375 50.3289 14.4725 49.9607 14.2327 49.5145C13.9739 49.0304 13.8446 48.4887 13.8573 47.9412C13.8449 47.3902 13.9716 46.8448 14.2259 46.3544C14.4652 45.9118 14.8276 45.5463 15.2703 45.3011C15.7422 45.0512 16.2711 44.9256 16.8062 44.9364C17.3293 44.9281 17.846 45.0513 18.308 45.2943C18.7459 45.5228 19.1048 45.8755 19.3387 46.3071C19.5905 46.7693 19.7174 47.288 19.7073 47.8129C19.7141 47.9932 19.7073 48.1738 19.6868 48.3531ZM18.1919 47.3673C18.195 47.195 18.1599 47.0241 18.0891 46.8666C18.0184 46.7092 17.9137 46.5689 17.7823 46.4557C17.504 46.2294 17.1527 46.1095 16.7926 46.1181C16.4522 46.11 16.1211 46.228 15.8642 46.4489C15.6036 46.6904 15.4389 47.0161 15.4 47.3673H18.1919Z" fill="#0a165e"/>
<path d="M20.7991 46.3341C21.0353 45.8938 21.3927 45.5286 21.8299 45.2808C22.2903 45.0264 22.8112 44.8981 23.3385 44.9094C23.9854 44.8852 24.622 45.0753 25.1474 45.4496C25.6389 45.8283 25.9797 46.3662 26.1099 46.9688H24.5057C24.433 46.729 24.2817 46.52 24.0757 46.3746C23.855 46.2254 23.592 46.1497 23.3248 46.1586C23.1328 46.1517 22.9419 46.1897 22.7676 46.2695C22.5932 46.3492 22.4404 46.4686 22.3214 46.6177C22.0502 46.9948 21.9177 47.4523 21.9459 47.9142C21.9158 48.3721 22.0486 48.8259 22.3214 49.1971C22.4392 49.3475 22.5919 49.4677 22.7665 49.5476C22.9411 49.6275 23.1326 49.6648 23.3248 49.6563C23.5844 49.6791 23.8441 49.6122 24.0594 49.4669C24.2748 49.3216 24.4325 49.107 24.5057 48.8595H26.1099C25.9672 49.4531 25.6256 49.9815 25.1406 50.3585C24.6226 50.7442 23.9864 50.9421 23.3385 50.9189C22.8115 50.927 22.2915 50.799 21.8299 50.5476C21.3927 50.2997 21.0353 49.9345 20.7991 49.4942C20.5449 49.0062 20.4181 48.463 20.4305 47.9142C20.4181 47.3653 20.5449 46.8221 20.7991 46.3341Z" fill="#0a165e"/>
<path d="M31.7074 45.2066C32.0594 45.4039 32.3445 45.7 32.5265 46.0574C32.73 46.4786 32.8306 46.9411 32.8201 47.4078V50.8245H31.332V47.6104C31.3584 47.2238 31.2337 46.8419 30.9838 46.5435C30.8605 46.4178 30.7114 46.3197 30.5466 46.2556C30.3818 46.1916 30.205 46.1631 30.0282 46.1722C29.8481 46.1619 29.668 46.1898 29.4996 46.2538C29.3313 46.3179 29.1787 46.4166 29.052 46.5435C28.7971 46.8395 28.6697 47.2225 28.6971 47.6104V50.8245H27.2021V43.0526H28.6902V45.7535C28.8916 45.4961 29.1543 45.2919 29.4548 45.1593C29.7907 45.0156 30.1537 44.9443 30.5197 44.95C30.9312 44.9346 31.3399 45.0229 31.7074 45.2066Z" fill="#0a165e"/>
<path d="M38.8001 43.5117V44.7001H35.7078V46.5773H38.0765V47.7454H35.7078V50.8447H34.2266V43.5117H38.8001Z" fill="#0a165e"/>
<path d="M40.9362 50.5476C40.485 50.3014 40.1135 49.9339 39.8645 49.4875C39.6033 49.004 39.4717 48.4624 39.4823 47.9142C39.4695 47.3642 39.6062 46.8209 39.8782 46.341C40.1327 45.8918 40.5116 45.524 40.9704 45.2809C41.4416 45.0286 41.9705 44.9007 42.5063 44.9095C43.044 44.9017 43.575 45.0295 44.049 45.2809C44.5037 45.5271 44.8796 45.8943 45.1343 46.341C45.4084 46.8203 45.5475 47.3636 45.5371 47.9142C45.5485 48.4658 45.4068 49.01 45.1275 49.4875C44.8652 49.9353 44.4824 50.3023 44.0217 50.5476C43.5419 50.7968 43.0071 50.9244 42.4653 50.919C41.9321 50.9251 41.406 50.7973 40.9362 50.5476ZM43.223 49.4403C43.4673 49.3083 43.665 49.1057 43.7896 48.8596C43.9398 48.5672 44.0126 48.242 44.0012 47.9142C44.0173 47.6835 43.987 47.4519 43.912 47.2329C43.837 47.0138 43.7188 46.8116 43.5643 46.6381C43.4255 46.494 43.258 46.38 43.0723 46.3033C42.8867 46.2266 42.6869 46.1888 42.4858 46.1924C42.2865 46.1882 42.0887 46.2258 41.9052 46.3026C41.7216 46.3794 41.5566 46.4937 41.4209 46.6381C41.1139 46.9912 40.9595 47.4495 40.9908 47.9142C40.9586 48.3768 41.1077 48.8338 41.4073 49.1904C41.5402 49.3364 41.7038 49.4519 41.8865 49.5288C42.0693 49.6058 42.2668 49.6424 42.4653 49.6361C42.7305 49.6352 42.9912 49.5678 43.223 49.4403Z" fill="#0a165e"/>
<path d="M48.862 45.1795C49.1848 45.0011 49.5505 44.9124 49.9201 44.923V46.4625H49.5242C49.1448 46.4343 48.7689 46.5502 48.4729 46.7866C48.3395 46.9422 48.2392 47.1229 48.1782 47.3179C48.1172 47.5128 48.0967 47.718 48.118 47.921V50.8245H46.6299V45.004H48.118V45.9088C48.2979 45.606 48.5543 45.3547 48.862 45.1795Z" fill="#0a165e"/>
<path d="M56.0767 45.6994C55.9172 45.4159 55.6808 45.182 55.3941 45.0242C55.0706 44.8625 54.7121 44.7813 54.3497 44.7879C53.9413 44.7795 53.5382 44.8798 53.1824 45.0782C52.839 45.2769 52.5614 45.5702 52.3837 45.9223C52.1872 46.3119 52.0889 46.7428 52.0971 47.1782C52.0885 47.623 52.1892 48.0633 52.3906 48.4611C52.5736 48.814 52.8556 49.107 53.2029 49.3052C53.575 49.506 53.9942 49.6061 54.4179 49.5955C54.912 49.6114 55.3957 49.4535 55.7832 49.1499C56.1595 48.8296 56.4126 48.3908 56.4999 47.9074H53.9469V46.7798H57.9607V48.0627C57.8632 48.5777 57.6458 49.0632 57.3259 49.4807C56.993 49.9194 56.5634 50.2773 56.0699 50.5273C55.5345 50.7935 54.942 50.9279 54.3428 50.919C53.6652 50.9314 52.9963 50.7659 52.4042 50.4395C51.8289 50.1266 51.3553 49.6582 51.039 49.0891C50.7001 48.4991 50.528 47.8297 50.5407 47.1512C50.5287 46.4728 50.7007 45.8036 51.039 45.2133C51.356 44.6446 51.8293 44.1763 52.4042 43.8628C52.993 43.5405 53.6564 43.3753 54.3292 43.3834C55.0993 43.3653 55.8574 43.5745 56.5067 43.9844C57.1233 44.3894 57.5754 44.9968 57.7832 45.6994H56.0767Z" fill="#0a165e"/>
<path d="M60.1589 50.5476C59.7077 50.3013 59.3361 49.9338 59.0872 49.4874C58.8259 49.0039 58.6943 48.4623 58.7049 47.9142C58.6921 47.3641 58.8288 46.8208 59.1008 46.3409C59.3556 45.8943 59.7315 45.5271 60.1862 45.2808C60.6602 45.0294 61.1911 44.9016 61.7289 44.9094C62.2667 44.9016 62.7976 45.0294 63.2716 45.2808C63.7263 45.5271 64.1023 45.8943 64.357 46.3409C64.629 46.8208 64.7657 47.3641 64.7529 47.9142C64.7643 48.4658 64.6226 49.0099 64.3433 49.4874C64.0855 49.9363 63.7045 50.3039 63.2443 50.5476C62.7646 50.7967 62.2298 50.9243 61.688 50.9189C61.1547 50.925 60.6286 50.7972 60.1589 50.5476ZM62.4456 49.4402C62.6876 49.3053 62.8845 49.1035 63.0122 48.8595C63.1625 48.5672 63.2353 48.2419 63.2238 47.9142C63.2399 47.6834 63.2096 47.4518 63.1346 47.2328C63.0596 47.0137 62.9415 46.8116 62.787 46.638C62.6481 46.4939 62.4806 46.3799 62.295 46.3032C62.1093 46.2265 61.9096 46.1888 61.7084 46.1923C61.5092 46.1881 61.3113 46.2257 61.1278 46.3025C60.9443 46.3793 60.7792 46.4936 60.6436 46.638C60.3366 46.9911 60.1821 47.4494 60.2135 47.9142C60.1812 48.3767 60.3304 48.8337 60.6299 49.1903C60.7629 49.3363 60.9264 49.4518 61.1092 49.5287C61.2919 49.6057 61.4894 49.6423 61.688 49.636C61.9532 49.6351 62.2139 49.5677 62.4456 49.4402Z" fill="#0a165e"/>
<path d="M66.9303 50.5476C66.4816 50.3004 66.1125 49.9329 65.8654 49.4875C65.5988 49.0058 65.4647 48.4633 65.4763 47.9142C65.4667 47.3646 65.6033 46.8221 65.8722 46.341C66.1294 45.8939 66.5076 45.5267 66.9644 45.2809C67.4381 45.0287 67.9692 44.9008 68.5071 44.9095C69.0428 44.9007 69.5718 45.0286 70.043 45.2809C70.5017 45.524 70.8807 45.8918 71.1352 46.341C71.4041 46.8221 71.5406 47.3646 71.5311 47.9142C71.5425 48.4658 71.4008 49.01 71.1215 49.4875C70.8592 49.9353 70.4764 50.3023 70.0157 50.5476C69.5359 50.7968 69.0012 50.9244 68.4593 50.919C67.9262 50.9245 67.4002 50.7968 66.9303 50.5476ZM69.2239 49.4403C69.4644 49.3036 69.6608 49.1022 69.7904 48.8596C69.9407 48.5672 70.0135 48.242 70.002 47.9142C70.0168 47.6831 69.9852 47.4513 69.9091 47.2323C69.8329 47.0133 69.7137 46.8113 69.5583 46.6381C69.42 46.4933 69.2526 46.3789 69.0668 46.3021C68.8811 46.2254 68.6811 46.188 68.4798 46.1924C68.2806 46.1882 68.0827 46.2258 67.8992 46.3026C67.7156 46.3794 67.5506 46.4937 67.4149 46.6381C67.1079 46.9912 66.9535 47.4495 66.9849 47.9142C66.9545 48.3777 67.1061 48.8348 67.4081 49.1904C67.5403 49.3355 67.7028 49.4504 67.8842 49.5274C68.0657 49.6043 68.262 49.6414 68.4593 49.6361C68.7268 49.636 68.9899 49.5686 69.2239 49.4403Z" fill="#0a165e"/>
<path d="M72.5962 46.3274C72.816 45.8932 73.1541 45.5283 73.5723 45.274C73.9847 45.0304 74.4572 44.9042 74.9375 44.9094C75.3176 44.9087 75.693 44.9918 76.0365 45.1525C76.3632 45.3079 76.6467 45.5396 76.8625 45.8277V43.066H78.3711V50.8379H76.8966V49.9736C76.7016 50.2624 76.4332 50.4952 76.1184 50.6489C75.7622 50.8307 75.3656 50.9213 74.9648 50.9122C74.4826 50.9173 74.009 50.7861 73.5996 50.5341C73.1806 50.2747 72.8427 49.9054 72.6234 49.4672C72.3774 48.9768 72.2555 48.4345 72.2685 47.8872C72.2504 47.3488 72.3627 46.814 72.5962 46.3274ZM76.6577 47.0026C76.53 46.7547 76.3303 46.5502 76.0843 46.4152C75.8516 46.2764 75.5847 46.204 75.313 46.2059C75.0442 46.2032 74.7798 46.2732 74.5484 46.4084C74.3095 46.5471 74.1135 46.748 73.9819 46.9891C73.8285 47.2684 73.7531 47.583 73.7634 47.9007C73.7538 48.2204 73.8292 48.537 73.9819 48.819C74.1114 49.0691 74.3103 49.2776 74.5553 49.4199C74.7827 49.5593 75.0454 49.6318 75.313 49.6293C75.5836 49.6301 75.8497 49.5603 76.0843 49.4267C76.3303 49.2917 76.53 49.0872 76.6577 48.8392C76.8066 48.5561 76.8794 48.2399 76.8693 47.9209C76.8806 47.5997 76.8077 47.281 76.6577 46.9959V47.0026Z" fill="#0a165e"/>
<path d="M89.8661 49.1972H86.6373L86.0435 50.8245H85.0195L87.6954 43.5455H88.8081L91.4703 50.8245H90.4531L89.8661 49.1972ZM89.5931 48.4207L88.2278 44.7204L86.8626 48.4207H89.5931Z" fill="#0a165e"/>
<path d="M93.5051 50.6894C93.1734 50.5583 92.8835 50.3414 92.6655 50.0614C92.4597 49.7918 92.3408 49.4671 92.3242 49.1296H93.3208C93.3326 49.2702 93.3754 49.4066 93.4461 49.5291C93.5169 49.6516 93.6139 49.7572 93.7304 49.8386C94.0127 50.0305 94.3508 50.1254 94.6929 50.1087C95.0014 50.1271 95.307 50.0414 95.5598 49.8656C95.6595 49.7981 95.741 49.7074 95.7969 49.6014C95.8529 49.4954 95.8816 49.3775 95.8806 49.2579C95.8854 49.1417 95.8557 49.0267 95.795 48.9271C95.7343 48.8274 95.6454 48.7476 95.5393 48.6975C95.2043 48.5363 94.8515 48.414 94.4881 48.3329C94.1293 48.2476 93.7778 48.1348 93.4369 47.9952C93.1722 47.8758 92.9387 47.6979 92.7543 47.4753C92.5504 47.2206 92.4462 46.9018 92.4607 46.5773C92.4602 46.2881 92.5536 46.0065 92.727 45.7737C92.9184 45.5138 93.1781 45.3107 93.4778 45.1863C93.8319 45.0385 94.2131 44.9649 94.5973 44.9702C95.158 44.9442 95.7098 45.1165 96.1537 45.4564C96.3562 45.6195 96.519 45.8255 96.6301 46.0593C96.7412 46.2931 96.7976 46.5486 96.7953 46.8068H95.8056C95.801 46.6678 95.7664 46.5314 95.7039 46.4068C95.6415 46.2821 95.5528 46.1722 95.4438 46.0843C95.1862 45.8891 94.8668 45.7909 94.5427 45.8075C94.2504 45.7923 93.9608 45.8704 93.7168 46.0303C93.6209 46.0927 93.5425 46.1781 93.4888 46.2784C93.4351 46.3787 93.4079 46.4908 93.4096 46.6043C93.4067 46.7795 93.4728 46.949 93.5939 47.0769C93.7271 47.2038 93.8851 47.3026 94.0581 47.3673C94.2492 47.4416 94.5086 47.5226 94.8431 47.6171C95.1894 47.704 95.5293 47.8145 95.8602 47.948C96.1227 48.0556 96.3563 48.222 96.5428 48.4341C96.736 48.6763 96.8396 48.9765 96.8363 49.2849C96.8403 49.5892 96.7472 49.8869 96.5701 50.1357C96.3791 50.3976 96.1195 50.6031 95.8192 50.7299C95.4677 50.8782 95.0886 50.9518 94.7065 50.946C94.2921 50.9465 93.8824 50.859 93.5051 50.6894Z" fill="#0a165e"/>
<path d="M98.2146 43.9438C98.1129 43.8223 98.0573 43.6694 98.0576 43.5117C98.0601 43.3402 98.1284 43.176 98.2488 43.0525C98.3101 42.9909 98.3835 42.9424 98.4645 42.9099C98.5455 42.8774 98.6324 42.8616 98.7198 42.8634C98.8041 42.8615 98.8879 42.8773 98.9656 42.9099C99.0433 42.9425 99.1131 42.9911 99.1703 43.0525C99.2305 43.113 99.2778 43.1848 99.3094 43.2636C99.3411 43.3425 99.3565 43.4268 99.3546 43.5117C99.3557 43.6846 99.2898 43.8513 99.1703 43.9776C99.112 44.0376 99.0421 44.0853 98.9646 44.1178C98.8872 44.1503 98.8039 44.1669 98.7198 44.1666C98.6245 44.1664 98.5304 44.1465 98.4434 44.1081C98.3564 44.0697 98.2784 44.0138 98.2146 43.9438ZM99.1498 45.0647V50.8244H98.1873V45.0647H99.1498Z" fill="#0a165e"/>
<path d="M100.789 46.3747C101.017 45.945 101.362 45.5872 101.785 45.3416C102.21 45.0917 102.697 44.9631 103.191 44.9702C103.655 44.9574 104.114 45.0719 104.516 45.3011C104.866 45.4917 105.157 45.7744 105.355 46.1181V45.0647H106.338V50.8244H105.362V49.7508C105.159 50.101 104.864 50.3903 104.509 50.5881C104.105 50.8134 103.648 50.9277 103.184 50.919C102.692 50.9235 102.207 50.7926 101.785 50.5408C101.363 50.2819 101.019 49.9159 100.789 49.4807C100.544 48.997 100.422 48.4617 100.434 47.921C100.421 47.3844 100.543 46.8531 100.789 46.3747ZM105.089 46.8001C104.929 46.4885 104.679 46.2303 104.372 46.0573C104.071 45.8869 103.729 45.7983 103.382 45.8007C103.035 45.7983 102.694 45.8869 102.393 46.0573C102.101 46.2335 101.865 46.4859 101.71 46.7866C101.526 47.1365 101.435 47.5267 101.444 47.921C101.433 48.3218 101.525 48.7189 101.71 49.0756C101.865 49.3803 102.101 49.6372 102.393 49.8183C102.693 49.9919 103.035 50.0807 103.382 50.0749C103.73 50.0807 104.072 49.9919 104.372 49.8183C104.681 49.647 104.93 49.3883 105.089 49.0756C105.273 48.7232 105.364 48.3309 105.355 47.9345C105.366 47.5408 105.277 47.1506 105.096 46.8001H105.089Z" fill="#0a165e"/>
<path d="M82.2344 49.1499H81.3879C81.1052 49.1499 80.876 49.3766 80.876 49.6563V50.4936C80.876 50.7733 81.1052 51 81.3879 51H82.2344C82.5171 51 82.7463 50.7733 82.7463 50.4936V49.6563C82.7463 49.3766 82.5171 49.1499 82.2344 49.1499Z" fill="#0a165e"/>
</g>
<defs>
<clipPath id="clip0_918_825">
<rect width="107" height="51" fill="#0a165e"/>
</clipPath>
</defs>
</svg>
